<svg width="280" height="40" viewBox="0 0 280 40" fill="none" xmlns="http://www.w3.org/2000/svg">
<path d="M89.1651 2.03636H70.8349C65.9756 2.03636 62.0364 5.9756 62.0364 10.8349V29.1651C62.0364 34.0244 65.9756 37.9636 70.8349 37.9636H89.1651C94.0244 37.9636 97.9636 34.0244 97.9636 29.1651V10.8349C97.9636 5.9756 94.0244 2.03636 89.1651 2.03636Z" fill="#E0E0E0"/>
<path d="M73.2232 21.0443C76.1497 21.0443 78.5221 18.6719 78.5221 15.7454C78.5221 12.8189 76.1497 10.4465 73.2232 10.4465C70.2967 10.4465 67.9243 12.8189 67.9243 15.7454C67.9243 18.6719 70.2967 21.0443 73.2232 21.0443Z" fill="#FFFCDD"/>
<path d="M73.2233 19.2364C75.1513 19.2364 76.7142 17.6734 76.7142 15.7455C76.7142 13.8175 75.1513 12.2545 73.2233 12.2545C71.2954 12.2545 69.7324 13.8175 69.7324 15.7455C69.7324 17.6734 71.2954 19.2364 73.2233 19.2364Z" fill="#3ABEB6"/>
<path d="M75.0707 15.7455C75.0707 16.1112 74.9623 16.4686 74.7591 16.7727C74.5559 17.0767 74.267 17.3137 73.9292 17.4536C73.5913 17.5935 73.2195 17.63 72.8608 17.5585C72.5022 17.4871 72.1727 17.3109 71.9143 17.0522C71.6558 16.7935 71.4798 16.4639 71.4086 16.1052C71.3375 15.7465 71.3743 15.3748 71.5144 15.037C71.6546 14.6992 71.8918 14.4106 72.196 14.2076C72.5002 14.0046 72.8578 13.8964 73.2235 13.8967C73.7135 13.8971 74.1834 14.0921 74.5298 14.4387C74.8762 14.7854 75.0707 15.2554 75.0707 15.7455Z" fill="#195055"/>
<path d="M76.9194 13.8967C76.9197 14.2624 76.8115 14.62 76.6085 14.9242C76.4055 15.2284 76.1169 15.4656 75.7791 15.6058C75.4413 15.7459 75.0696 15.7827 74.7109 15.7116C74.3522 15.6404 74.0226 15.4644 73.7639 15.2059C73.5052 14.9475 73.329 14.618 73.2576 14.2594C73.1861 13.9007 73.2226 13.5289 73.3625 13.191C73.5024 12.8531 73.7393 12.5643 74.0434 12.3611C74.3475 12.1579 74.7049 12.0495 75.0706 12.0495C75.5607 12.0495 76.0307 12.244 76.3774 12.5904C76.724 12.9368 76.919 13.4067 76.9194 13.8967Z" fill="#FFFCDD"/>
<path d="M86.7769 21.0443C89.7035 21.0443 92.0759 18.6719 92.0759 15.7454C92.0759 12.8189 89.7035 10.4465 86.7769 10.4465C83.8504 10.4465 81.478 12.8189 81.478 15.7454C81.478 18.6719 83.8504 21.0443 86.7769 21.0443Z" fill="#FFFCDD"/>
<path d="M90.2689 15.7455C90.2689 16.4359 90.0642 17.1108 89.6806 17.6849C89.297 18.259 88.7518 18.7064 88.1139 18.9706C87.4761 19.2348 86.7741 19.304 86.097 19.1693C85.4198 19.0346 84.7978 18.7021 84.3096 18.2139C83.8214 17.7257 83.4889 17.1037 83.3542 16.4265C83.2195 15.7493 83.2886 15.0474 83.5528 14.4095C83.8171 13.7717 84.2645 13.2265 84.8386 12.8429C85.4126 12.4593 86.0876 12.2545 86.778 12.2545C87.7039 12.2545 88.5918 12.6223 89.2465 13.277C89.9011 13.9317 90.2689 14.8196 90.2689 15.7455Z" fill="#3ABEB6"/>
<path d="M88.6257 15.7454C88.6257 16.1111 88.5173 16.4685 88.3141 16.7725C88.111 17.0766 87.8223 17.3135 87.4844 17.4534C87.1466 17.5934 86.7749 17.63 86.4163 17.5586C86.0577 17.4873 85.7283 17.3112 85.4697 17.0527C85.2112 16.7941 85.0351 16.4647 84.9637 16.1061C84.8924 15.7475 84.929 15.3758 85.0689 15.038C85.2089 14.7002 85.4458 14.4114 85.7499 14.2083C86.0539 14.0051 86.4113 13.8967 86.777 13.8967C87.2673 13.8967 87.7375 14.0915 88.0842 14.4382C88.4309 14.7849 88.6257 15.2551 88.6257 15.7454Z" fill="#195055"/>
<path d="M90.474 13.8967C90.4743 14.2624 90.3661 14.62 90.1632 14.9242C89.9602 15.2284 89.6716 15.4656 89.3338 15.6058C88.996 15.7459 88.6243 15.7827 88.2656 15.7116C87.9068 15.6404 87.5773 15.4644 87.3186 15.2059C87.0599 14.9475 86.8837 14.618 86.8122 14.2594C86.7408 13.9007 86.7773 13.5289 86.9172 13.191C87.0571 12.8531 87.294 12.5643 87.5981 12.3611C87.9021 12.1579 88.2596 12.0495 88.6253 12.0495C89.1154 12.0495 89.5854 12.244 89.932 12.5904C90.2787 12.9368 90.4737 13.4067 90.474 13.8967Z" fill="#FFFCDD"/>
<path d="M91.373 30.0102C91.2644 30.011 91.1573 29.9848 91.0614 29.934C90.9654 29.8833 90.8836 29.8095 90.8231 29.7193C88.5817 26.2633 84.4362 24.1207 79.9999 24.1207C75.5635 24.1207 71.418 26.2633 69.1766 29.712C69.0821 29.8576 68.9336 29.9597 68.7638 29.9959C68.594 30.032 68.4168 29.9992 68.2711 29.9047C68.1255 29.8102 68.0234 29.6617 67.9872 29.4919C67.9511 29.3221 67.9839 29.1449 68.0784 28.9993C70.5599 25.1825 75.1286 22.8116 80.0057 22.8116C84.8828 22.8116 89.4457 25.1825 91.933 28.9993C91.9971 29.098 92.0333 29.2122 92.038 29.3299C92.0426 29.4475 92.0154 29.5642 91.9593 29.6677C91.9031 29.7712 91.8201 29.8576 91.719 29.9179C91.6178 29.9782 91.5023 30.0101 91.3846 30.0102H91.373Z" fill="#6B3925"/>
<path d="M66.6646 12.4858C66.5489 12.4858 66.4379 12.4398 66.3561 12.358C66.2742 12.2762 66.2283 12.1652 66.2283 12.0494C66.2283 11.9337 66.2742 11.8227 66.3561 11.7409C66.4379 11.6591 66.5489 11.6131 66.6646 11.6131C68.8974 11.6131 72.5032 10.1964 74.6748 7.83126C74.7106 7.78129 74.7566 7.73945 74.8097 7.70848C74.8628 7.67752 74.9219 7.65812 74.983 7.65158C75.0442 7.64503 75.106 7.65147 75.1644 7.67049C75.2229 7.6895 75.2767 7.72066 75.3223 7.76191C75.3679 7.80317 75.4042 7.85359 75.429 7.90988C75.4537 7.96616 75.4663 8.02704 75.4658 8.08852C75.4654 8.15 75.452 8.2107 75.4265 8.26663C75.4009 8.32256 75.3639 8.37247 75.3177 8.41308C72.8974 11.0545 69.0515 12.4858 66.6646 12.4858Z" fill="#6B3925"/>
<path d="M93.3352 12.4858C90.9482 12.4858 87.1039 11.0589 84.6821 8.41308C84.6359 8.37247 84.5989 8.32256 84.5733 8.26663C84.5478 8.2107 84.5344 8.15 84.5339 8.08852C84.5335 8.02704 84.5461 7.96616 84.5708 7.90988C84.5956 7.85359 84.6319 7.80317 84.6775 7.76191C84.7231 7.72066 84.7769 7.6895 84.8353 7.67049C84.8938 7.65147 84.9556 7.64503 85.0168 7.65158C85.0779 7.65812 85.137 7.67752 85.1901 7.70848C85.2432 7.73945 85.2892 7.78129 85.325 7.83126C87.4966 10.2007 91.1039 11.6131 93.3352 11.6131C93.4509 11.6131 93.5619 11.6591 93.6437 11.7409C93.7255 11.8227 93.7715 11.9337 93.7715 12.0494C93.7715 12.1652 93.7255 12.2762 93.6437 12.358C93.5619 12.4398 93.4509 12.4858 93.3352 12.4858Z" fill="#6B3925"/>
<path d="M29.1651 2.03636H10.8349C5.97562 2.03636 2.03638 5.9756 2.03638 10.8349V29.1651C2.03638 34.0244 5.97562 37.9636 10.8349 37.9636H29.1651C34.0244 37.9636 37.9636 34.0244 37.9636 29.1651V10.8349C37.9636 8.51576 37.0664 6.40617 35.6 4.83437C33.994 3.11279 31.7053 2.03636 29.1651 2.03636Z" fill="#FFCD03"/>
<path d="M25.2641 28.5789C25.1767 28.5792 25.0902 28.5618 25.0097 28.5278C24.9293 28.4938 24.8565 28.4439 24.7957 28.3811C23.8212 27.3833 21.9841 26.7636 19.9957 26.7636C18.0074 26.7636 16.1746 27.3833 15.1957 28.3811C15.0732 28.4987 14.9097 28.5641 14.7399 28.5635C14.57 28.5628 14.4071 28.4961 14.2855 28.3775C14.1638 28.259 14.0931 28.0977 14.0882 27.9279C14.0832 27.7582 14.1445 27.5931 14.259 27.4676C15.4896 26.2065 17.6321 25.4545 19.9914 25.4545C22.3506 25.4545 24.4932 26.2065 25.7237 27.4676C25.8135 27.5598 25.8742 27.6764 25.898 27.8029C25.9219 27.9293 25.908 28.06 25.858 28.1786C25.8081 28.2972 25.7242 28.3984 25.617 28.4696C25.5099 28.5408 25.3841 28.5788 25.2554 28.5789H25.2641Z" fill="#6B3925"/>
<path d="M16.243 7.88655C16.1687 7.88652 16.0956 7.86749 16.0306 7.83128C15.4488 7.50546 14.339 7.30182 13.139 7.30182C11.939 7.30182 10.8306 7.50546 10.2474 7.83128C10.1463 7.88779 10.0269 7.90184 9.91548 7.87034C9.80405 7.83883 9.7097 7.76435 9.65319 7.66328C9.59667 7.56221 9.58262 7.44282 9.61413 7.33139C9.64563 7.21996 9.72012 7.12561 9.82119 7.06909C10.5383 6.66909 11.779 6.42909 13.139 6.42909C14.499 6.42909 15.7397 6.66909 16.4568 7.06909C16.5413 7.11621 16.6077 7.19005 16.6457 7.27902C16.6836 7.36799 16.6909 7.46704 16.6664 7.56061C16.642 7.65418 16.5871 7.73697 16.5104 7.79597C16.4338 7.85497 16.3397 7.88683 16.243 7.88655Z" fill="#6B3925"/>
<path d="M29.9637 7.88655C29.8894 7.88652 29.8163 7.86749 29.7513 7.83128C29.1695 7.50546 28.0597 7.30182 26.8597 7.30182C25.6597 7.30182 24.5513 7.50546 23.9681 7.83128C23.867 7.88779 23.7476 7.90184 23.6362 7.87034C23.5248 7.83883 23.4304 7.76435 23.3739 7.66328C23.3174 7.56221 23.3033 7.44282 23.3348 7.33139C23.3663 7.21996 23.4408 7.12561 23.5419 7.06909C24.259 6.66909 25.4997 6.42909 26.8597 6.42909C28.2197 6.42909 29.4604 6.66909 30.1775 7.06909C30.262 7.11621 30.3284 7.19005 30.3663 7.27902C30.4043 7.36799 30.4116 7.46704 30.3871 7.56061C30.3626 7.65418 30.3078 7.73697 30.2311 7.79597C30.1545 7.85497 30.0604 7.88683 29.9637 7.88655Z" fill="#6B3925"/>
<path d="M13.2232 21.0443C16.1497 21.0443 18.5221 18.6719 18.5221 15.7454C18.5221 12.8189 16.1497 10.4465 13.2232 10.4465C10.2967 10.4465 7.92432 12.8189 7.92432 15.7454C7.92432 18.6719 10.2967 21.0443 13.2232 21.0443Z" fill="#FFFCDD"/>
<path d="M13.2233 19.2364C15.1513 19.2364 16.7142 17.6734 16.7142 15.7455C16.7142 13.8175 15.1513 12.2545 13.2233 12.2545C11.2954 12.2545 9.73242 13.8175 9.73242 15.7455C9.73242 17.6734 11.2954 19.2364 13.2233 19.2364Z" fill="#3ABEB6"/>
<path d="M15.0707 15.7455C15.0707 16.1112 14.9623 16.4686 14.7591 16.7727C14.5559 17.0767 14.267 17.3137 13.9292 17.4536C13.5913 17.5935 13.2195 17.63 12.8608 17.5585C12.5022 17.4871 12.1727 17.3109 11.9143 17.0522C11.6558 16.7935 11.4798 16.4639 11.4086 16.1052C11.3375 15.7465 11.3743 15.3748 11.5144 15.037C11.6546 14.6992 11.8918 14.4106 12.196 14.2076C12.5002 14.0046 12.8578 13.8964 13.2235 13.8967C13.7135 13.8971 14.1834 14.0921 14.5298 14.4387C14.8762 14.7854 15.0707 15.2554 15.0707 15.7455Z" fill="#195055"/>
<path d="M16.9194 13.8967C16.9197 14.2624 16.8115 14.62 16.6085 14.9242C16.4055 15.2284 16.1169 15.4656 15.7791 15.6058C15.4413 15.7459 15.0696 15.7827 14.7109 15.7116C14.3522 15.6404 14.0226 15.4644 13.7639 15.2059C13.5052 14.9475 13.329 14.618 13.2576 14.2594C13.1861 13.9007 13.2226 13.5289 13.3625 13.191C13.5024 12.8531 13.7393 12.5643 14.0434 12.3611C14.3475 12.1579 14.7049 12.0495 15.0706 12.0495C15.5607 12.0495 16.0307 12.244 16.3774 12.5904C16.724 12.9368 16.919 13.4067 16.9194 13.8967Z" fill="#FFFCDD"/>
<path d="M26.7769 21.0443C29.7035 21.0443 32.0759 18.6719 32.0759 15.7454C32.0759 12.8189 29.7035 10.4465 26.7769 10.4465C23.8504 10.4465 21.478 12.8189 21.478 15.7454C21.478 18.6719 23.8504 21.0443 26.7769 21.0443Z" fill="#FFFCDD"/>
<path d="M30.2689 15.7455C30.2689 16.4359 30.0642 17.1108 29.6806 17.6849C29.297 18.259 28.7518 18.7064 28.1139 18.9706C27.4761 19.2348 26.7741 19.304 26.097 19.1693C25.4198 19.0346 24.7978 18.7021 24.3096 18.2139C23.8214 17.7257 23.4889 17.1037 23.3542 16.4265C23.2195 15.7493 23.2886 15.0474 23.5528 14.4095C23.8171 13.7717 24.2645 13.2265 24.8386 12.8429C25.4126 12.4593 26.0876 12.2545 26.778 12.2545C27.7039 12.2545 28.5918 12.6223 29.2465 13.277C29.9011 13.9317 30.2689 14.8196 30.2689 15.7455Z" fill="#3ABEB6"/>
<path d="M28.6257 15.7454C28.6257 16.1111 28.5173 16.4685 28.3141 16.7725C28.111 17.0766 27.8223 17.3135 27.4844 17.4534C27.1466 17.5934 26.7749 17.63 26.4163 17.5586C26.0577 17.4873 25.7283 17.3112 25.4697 17.0527C25.2112 16.7941 25.0351 16.4647 24.9637 16.1061C24.8924 15.7475 24.929 15.3758 25.0689 15.038C25.2089 14.7002 25.4458 14.4114 25.7499 14.2083C26.0539 14.0051 26.4113 13.8967 26.777 13.8967C27.2673 13.8967 27.7375 14.0915 28.0842 14.4382C28.4309 14.7849 28.6257 15.2551 28.6257 15.7454Z" fill="#195055"/>
<path d="M30.474 13.8967C30.4743 14.2624 30.3661 14.62 30.1632 14.9242C29.9602 15.2284 29.6716 15.4656 29.3338 15.6058C28.996 15.7459 28.6243 15.7827 28.2656 15.7116C27.9068 15.6404 27.5773 15.4644 27.3186 15.2059C27.0599 14.9475 26.8837 14.618 26.8122 14.2594C26.7408 13.9007 26.7773 13.5289 26.9172 13.191C27.0571 12.8531 27.294 12.5643 27.5981 12.3611C27.9021 12.1579 28.2596 12.0495 28.6253 12.0495C29.1154 12.0495 29.5854 12.244 29.932 12.5904C30.2787 12.9368 30.4737 13.4067 30.474 13.8967Z" fill="#FFFCDD"/>
<path d="M19.4533 15.7455H6.99218C6.97956 14.9192 7.13139 14.0988 7.43884 13.3318C7.74628 12.5648 8.20321 11.8666 8.78302 11.2779C9.36283 10.6891 10.0539 10.2216 10.8162 9.90245C11.5784 9.58332 12.3964 9.41898 13.2227 9.41898C14.049 9.41898 14.8671 9.58332 15.6293 9.90245C16.3915 10.2216 17.0826 10.6891 17.6624 11.2779C18.2422 11.8666 18.6992 12.5648 19.0066 13.3318C19.3141 14.0988 19.4659 14.9192 19.4533 15.7455Z" fill="#F99D1C"/>
<path d="M33.0082 15.7455H20.5471C20.5345 14.9192 20.6863 14.0988 20.9938 13.3318C21.3012 12.5648 21.7581 11.8666 22.338 11.2779C22.9178 10.6891 23.6089 10.2216 24.3711 9.90245C25.1333 9.58332 25.9513 9.41898 26.7777 9.41898C27.604 9.41898 28.422 9.58332 29.1842 9.90245C29.9464 10.2216 30.6375 10.6891 31.2174 11.2779C31.7972 11.8666 32.2541 12.5648 32.5615 13.3318C32.869 14.0988 33.0208 14.9192 33.0082 15.7455Z" fill="#F99D1C"/>
<path d="M149.165 2.03636H130.835C125.976 2.03636 122.036 5.9756 122.036 10.8349V29.1651C122.036 34.0244 125.976 37.9636 130.835 37.9636H149.165C154.024 37.9636 157.964 34.0244 157.964 29.1651V10.8349C157.964 5.9756 154.024 2.03636 149.165 2.03636Z" fill="#E0E0E0"/>
<path d="M136.243 7.88655C136.169 7.88652 136.096 7.86749 136.031 7.83128C135.449 7.50546 134.339 7.30182 133.139 7.30182C131.939 7.30182 130.831 7.50546 130.247 7.83128C130.146 7.88779 130.027 7.90184 129.915 7.87034C129.804 7.83883 129.71 7.76435 129.653 7.66328C129.597 7.56221 129.583 7.44282 129.614 7.33139C129.646 7.21996 129.72 7.12561 129.821 7.06909C130.538 6.66909 131.779 6.42909 133.139 6.42909C134.499 6.42909 135.74 6.66909 136.457 7.06909C136.541 7.11621 136.608 7.19005 136.646 7.27902C136.684 7.36799 136.691 7.46704 136.666 7.56061C136.642 7.65418 136.587 7.73697 136.51 7.79597C136.434 7.85497 136.34 7.88683 136.243 7.88655Z" fill="#6B3925"/>
<path d="M149.964 7.88655C149.889 7.88652 149.816 7.86749 149.751 7.83128C149.17 7.50546 148.06 7.30182 146.86 7.30182C145.66 7.30182 144.551 7.50546 143.968 7.83128C143.867 7.88779 143.748 7.90184 143.636 7.87034C143.525 7.83883 143.43 7.76435 143.374 7.66328C143.317 7.56221 143.303 7.44282 143.335 7.33139C143.366 7.21996 143.441 7.12561 143.542 7.06909C144.259 6.66909 145.5 6.42909 146.86 6.42909C148.22 6.42909 149.46 6.66909 150.178 7.06909C150.262 7.11621 150.328 7.19005 150.366 7.27902C150.404 7.36799 150.412 7.46704 150.387 7.56061C150.363 7.65418 150.308 7.73697 150.231 7.79597C150.154 7.85497 150.06 7.88683 149.964 7.88655Z" fill="#6B3925"/>
<path d="M133.223 21.0443C136.15 21.0443 138.522 18.6719 138.522 15.7454C138.522 12.8189 136.15 10.4465 133.223 10.4465C130.297 10.4465 127.924 12.8189 127.924 15.7454C127.924 18.6719 130.297 21.0443 133.223 21.0443Z" fill="#FFFCDD"/>
<path d="M136.714 15.7455C136.714 16.4359 136.509 17.1108 136.126 17.6849C135.742 18.259 135.197 18.7064 134.559 18.9706C133.921 19.2348 133.219 19.304 132.542 19.1693C131.865 19.0346 131.243 18.7021 130.755 18.2139C130.267 17.7257 129.934 17.1037 129.8 16.4265C129.665 15.7493 129.734 15.0474 129.998 14.4095C130.262 13.7717 130.71 13.2265 131.284 12.8429C131.858 12.4593 132.533 12.2545 133.223 12.2545C134.149 12.2545 135.037 12.6223 135.692 13.277C136.346 13.9317 136.714 14.8196 136.714 15.7455Z" fill="#3ABEB6"/>
<path d="M135.071 15.7455C135.071 16.1112 134.962 16.4686 134.759 16.7727C134.556 17.0767 134.267 17.3137 133.929 17.4536C133.591 17.5935 133.219 17.63 132.861 17.5585C132.502 17.4871 132.173 17.3109 131.914 17.0522C131.656 16.7935 131.48 16.4639 131.409 16.1052C131.337 15.7465 131.374 15.3748 131.514 15.037C131.655 14.6992 131.892 14.4106 132.196 14.2076C132.5 14.0046 132.858 13.8964 133.223 13.8967C133.714 13.8971 134.183 14.0921 134.53 14.4387C134.876 14.7854 135.071 15.2554 135.071 15.7455Z" fill="#195055"/>
<path d="M136.378 15.2045C137.1 14.4826 137.1 13.312 136.378 12.59C135.656 11.8681 134.485 11.8681 133.763 12.59C133.041 13.312 133.041 14.4826 133.763 15.2045C134.485 15.9265 135.656 15.9265 136.378 15.2045Z" fill="#FFFCDD"/>
<path d="M146.777 21.0443C149.703 21.0443 152.076 18.6719 152.076 15.7454C152.076 12.8189 149.703 10.4465 146.777 10.4465C143.85 10.4465 141.478 12.8189 141.478 15.7454C141.478 18.6719 143.85 21.0443 146.777 21.0443Z" fill="#FFFCDD"/>
<path d="M150.269 15.7455C150.269 16.4359 150.064 17.1108 149.681 17.6849C149.297 18.259 148.752 18.7064 148.114 18.9706C147.476 19.2348 146.774 19.304 146.097 19.1693C145.42 19.0346 144.798 18.7021 144.31 18.2139C143.821 17.7257 143.489 17.1037 143.354 16.4265C143.219 15.7493 143.289 15.0474 143.553 14.4095C143.817 13.7717 144.264 13.2265 144.839 12.8429C145.413 12.4593 146.088 12.2545 146.778 12.2545C147.704 12.2545 148.592 12.6223 149.246 13.277C149.901 13.9317 150.269 14.8196 150.269 15.7455Z" fill="#3ABEB6"/>
<path d="M148.626 15.7454C148.626 16.1111 148.517 16.4685 148.314 16.7725C148.111 17.0766 147.822 17.3135 147.484 17.4534C147.147 17.5934 146.775 17.63 146.416 17.5586C146.058 17.4873 145.728 17.3112 145.47 17.0527C145.211 16.7941 145.035 16.4647 144.964 16.1061C144.892 15.7475 144.929 15.3758 145.069 15.038C145.209 14.7002 145.446 14.4114 145.75 14.2083C146.054 14.0051 146.411 13.8967 146.777 13.8967C147.267 13.8967 147.738 14.0915 148.084 14.4382C148.431 14.7849 148.626 15.2551 148.626 15.7454Z" fill="#195055"/>
<path d="M149.932 15.2037C150.654 14.4818 150.654 13.3112 149.932 12.5893C149.21 11.8673 148.039 11.8673 147.317 12.5893C146.595 13.3112 146.595 14.4818 147.317 15.2037C148.039 15.9257 149.21 15.9257 149.932 15.2037Z" fill="#FFFCDD"/>
<path d="M144.527 31.1084H135.474C135.3 31.1084 135.134 31.0394 135.011 30.9167C134.888 30.7939 134.819 30.6274 134.819 30.4538C134.819 30.2802 134.888 30.1137 135.011 29.991C135.134 29.8682 135.3 29.7993 135.474 29.7993H144.527C144.7 29.7993 144.867 29.8682 144.99 29.991C145.112 30.1137 145.181 30.2802 145.181 30.4538C145.181 30.6274 145.112 30.7939 144.99 30.9167C144.867 31.0394 144.7 31.1084 144.527 31.1084Z" fill="#6B3925"/>
<path d="M209.165 2.03636H190.835C185.976 2.03636 182.036 5.9756 182.036 10.8349V29.1651C182.036 34.0244 185.976 37.9636 190.835 37.9636H209.165C214.024 37.9636 217.964 34.0244 217.964 29.1651V10.8349C217.964 5.9756 214.024 2.03636 209.165 2.03636Z" fill="#E0E0E0"/>
<path d="M198.372 16.9948C199.063 14.151 197.318 11.2855 194.474 10.5944C191.631 9.90324 188.765 11.6483 188.074 14.492C187.383 17.3357 189.128 20.2013 191.972 20.8924C194.815 21.5835 197.681 19.8385 198.372 16.9948Z" fill="#FFFCDD"/>
<path d="M196.616 16.568C197.071 14.6943 195.92 12.8071 194.046 12.3528C192.173 11.8984 190.286 13.0491 189.831 14.9227C189.377 16.7964 190.527 18.6836 192.401 19.138C194.275 19.5923 196.162 18.4417 196.616 16.568Z" fill="#3ABEB6"/>
<path d="M195.071 15.7455C195.071 16.1112 194.962 16.4686 194.759 16.7727C194.556 17.0767 194.267 17.3137 193.929 17.4536C193.591 17.5935 193.219 17.63 192.861 17.5585C192.502 17.4871 192.173 17.3109 191.914 17.0522C191.656 16.7935 191.48 16.4639 191.409 16.1052C191.337 15.7465 191.374 15.3748 191.514 15.037C191.655 14.6992 191.892 14.4106 192.196 14.2076C192.5 14.0046 192.858 13.8964 193.223 13.8967C193.714 13.8971 194.183 14.0921 194.53 14.4387C194.876 14.7854 195.071 15.2554 195.071 15.7455Z" fill="#195055"/>
<path d="M196.919 13.8967C196.919 14.2624 196.811 14.6198 196.608 14.9238C196.405 15.2278 196.116 15.4648 195.778 15.6047C195.44 15.7446 195.069 15.7813 194.71 15.7099C194.351 15.6386 194.022 15.4625 193.763 15.204C193.505 14.9454 193.329 14.616 193.257 14.2574C193.186 13.8988 193.223 13.5271 193.363 13.1892C193.503 12.8514 193.74 12.5627 194.044 12.3596C194.348 12.1564 194.705 12.048 195.071 12.048C195.561 12.048 196.031 12.2428 196.378 12.5895C196.725 12.9362 196.919 13.4064 196.919 13.8967Z" fill="#FFFCDD"/>
<path d="M211.927 16.9964C212.618 14.1525 210.872 11.2875 208.028 10.5974C205.184 9.90725 202.319 11.6533 201.628 14.4973C200.938 17.3412 202.684 20.2062 205.528 20.8963C208.372 21.5864 211.237 19.8404 211.927 16.9964Z" fill="#FFFCDD"/>
<path d="M210.269 15.7455C210.269 16.4359 210.064 17.1108 209.681 17.6849C209.297 18.259 208.752 18.7064 208.114 18.9706C207.476 19.2348 206.774 19.304 206.097 19.1693C205.42 19.0346 204.798 18.7021 204.31 18.2139C203.821 17.7257 203.489 17.1037 203.354 16.4265C203.219 15.7493 203.289 15.0474 203.553 14.4095C203.817 13.7717 204.264 13.2265 204.839 12.8429C205.413 12.4593 206.088 12.2545 206.778 12.2545C207.704 12.2545 208.592 12.6223 209.246 13.277C209.901 13.9317 210.269 14.8196 210.269 15.7455Z" fill="#3ABEB6"/>
<path d="M208.626 15.7454C208.626 16.1111 208.517 16.4685 208.314 16.7725C208.111 17.0766 207.822 17.3135 207.484 17.4534C207.147 17.5934 206.775 17.63 206.416 17.5586C206.058 17.4873 205.728 17.3112 205.47 17.0527C205.211 16.7941 205.035 16.4647 204.964 16.1061C204.892 15.7475 204.929 15.3758 205.069 15.038C205.209 14.7002 205.446 14.4114 205.75 14.2083C206.054 14.0051 206.411 13.8967 206.777 13.8967C207.267 13.8967 207.738 14.0915 208.084 14.4382C208.431 14.7849 208.626 15.2551 208.626 15.7454Z" fill="#195055"/>
<path d="M210.474 13.8967C210.474 14.2624 210.366 14.6198 210.162 14.9238C209.959 15.2278 209.671 15.4648 209.333 15.6047C208.995 15.7446 208.623 15.7813 208.265 15.7099C207.906 15.6386 207.577 15.4625 207.318 15.204C207.06 14.9454 206.883 14.616 206.812 14.2574C206.741 13.8988 206.777 13.5271 206.917 13.1892C207.057 12.8514 207.294 12.5627 207.598 12.3596C207.902 12.1564 208.26 12.048 208.625 12.048C209.116 12.048 209.586 12.2428 209.933 12.5895C210.279 12.9362 210.474 13.4064 210.474 13.8967Z" fill="#FFFCDD"/>
<path d="M212.742 12.7186C212.658 12.7188 212.575 12.6948 212.505 12.6493C212.434 12.6039 212.378 12.5391 212.343 12.4626C210.957 9.39929 207.361 7.79929 204.159 8.81892C204.104 8.83631 204.046 8.84276 203.989 8.83791C203.932 8.83306 203.877 8.81701 203.826 8.79068C203.775 8.76434 203.729 8.72823 203.692 8.68441C203.656 8.64059 203.628 8.58992 203.61 8.53529C203.593 8.48066 203.586 8.42314 203.591 8.36602C203.596 8.30889 203.612 8.25328 203.638 8.20236C203.665 8.15144 203.701 8.10621 203.745 8.06925C203.788 8.03228 203.839 8.00431 203.894 7.98693C207.511 6.83493 211.572 8.64292 213.139 12.1033C213.169 12.1697 213.181 12.2425 213.176 12.315C213.171 12.3876 213.147 12.4577 213.108 12.5188C213.068 12.58 213.014 12.6303 212.95 12.6652C212.886 12.7 212.815 12.7184 212.742 12.7186Z" fill="#6B3925"/>
<path d="M187.258 12.72C187.185 12.72 187.113 12.7016 187.049 12.6667C186.985 12.6317 186.931 12.5812 186.891 12.5199C186.852 12.4585 186.828 12.3882 186.823 12.3155C186.818 12.2427 186.831 12.1697 186.861 12.1033C188.427 8.64293 192.488 6.83638 196.106 7.98693C196.216 8.02203 196.308 8.09953 196.361 8.20237C196.414 8.3052 196.425 8.42496 196.39 8.53529C196.354 8.64562 196.277 8.73749 196.174 8.79068C196.071 8.84387 195.952 8.85403 195.841 8.81893C192.641 7.80075 189.043 9.40075 187.656 12.4626C187.622 12.5394 187.566 12.6045 187.495 12.6502C187.424 12.6959 187.342 12.7201 187.258 12.72Z" fill="#6B3925"/>
<path d="M200.047 33.0182C197.841 33.011 195.677 32.4118 193.782 31.2832C191.887 30.1547 190.33 28.5381 189.273 26.6022C188.889 25.886 188.577 25.1332 188.343 24.3549C188.318 24.2724 188.31 24.1858 188.318 24.1C188.327 24.0142 188.352 23.931 188.393 23.855C188.434 23.779 188.489 23.7118 188.556 23.6572C188.622 23.6026 188.699 23.5617 188.782 23.5367C188.864 23.5118 188.951 23.5034 189.037 23.5119C189.122 23.5205 189.206 23.5458 189.282 23.5865C189.358 23.6273 189.425 23.6826 189.479 23.7493C189.534 23.816 189.575 23.8928 189.6 23.9753C190.274 26.2086 191.65 28.1654 193.523 29.5563C195.396 30.9472 197.667 31.6982 200 31.6982C202.333 31.6982 204.604 30.9472 206.477 29.5563C208.35 28.1654 209.725 26.2086 210.4 23.9753C210.45 23.809 210.564 23.6694 210.717 23.5872C210.87 23.5049 211.049 23.4868 211.215 23.5367C211.381 23.5867 211.521 23.7006 211.603 23.8535C211.686 24.0064 211.704 24.1857 211.654 24.352C210.95 26.6415 209.593 28.6754 207.749 30.2033C205.904 31.7312 203.653 32.6864 201.273 32.9513C200.865 32.9952 200.456 33.0175 200.047 33.0182Z" fill="#6B3925"/>
<path d="M269.165 2.03636H250.835C245.976 2.03636 242.036 5.9756 242.036 10.8349V29.1651C242.036 34.0244 245.976 37.9636 250.835 37.9636H269.165C274.024 37.9636 277.964 34.0244 277.964 29.1651V10.8349C277.964 5.9756 274.024 2.03636 269.165 2.03636Z" fill="#E0E0E0"/>
<path d="M258.369 17.016C259.07 14.1747 257.335 11.3031 254.493 10.602C251.652 9.901 248.78 11.636 248.079 14.4773C247.378 17.3186 249.113 20.1902 251.955 20.8913C254.796 21.5923 257.668 19.8573 258.369 17.016Z" fill="#FFFCDD"/>
<path d="M256.612 16.5775C257.072 14.7052 255.927 12.8145 254.054 12.3546C252.182 11.8948 250.291 13.0398 249.831 14.9121C249.372 16.7844 250.517 18.675 252.389 19.1349C254.261 19.5948 256.152 18.4498 256.612 16.5775Z" fill="#3ABEB6"/>
<path d="M255.071 15.7455C255.071 16.1112 254.962 16.4686 254.759 16.7727C254.556 17.0767 254.267 17.3137 253.929 17.4536C253.591 17.5935 253.219 17.63 252.861 17.5585C252.502 17.4871 252.173 17.3109 251.914 17.0522C251.656 16.7935 251.48 16.4639 251.409 16.1052C251.337 15.7465 251.374 15.3748 251.514 15.037C251.655 14.6992 251.892 14.4106 252.196 14.2076C252.5 14.0046 252.858 13.8964 253.223 13.8967C253.714 13.8971 254.183 14.0921 254.53 14.4387C254.876 14.7854 255.071 15.2554 255.071 15.7455Z" fill="#195055"/>
<path d="M256.919 13.8967C256.919 14.2624 256.811 14.6198 256.608 14.9238C256.405 15.2278 256.116 15.4648 255.778 15.6047C255.44 15.7446 255.069 15.7813 254.71 15.7099C254.351 15.6386 254.022 15.4625 253.763 15.204C253.505 14.9454 253.329 14.616 253.257 14.2574C253.186 13.8988 253.223 13.5271 253.363 13.1892C253.503 12.8514 253.74 12.5627 254.044 12.3596C254.348 12.1564 254.705 12.048 255.071 12.048C255.561 12.048 256.031 12.2428 256.378 12.5895C256.725 12.9362 256.919 13.4064 256.919 13.8967Z" fill="#FFFCDD"/>
<path d="M271.924 17.0164C272.625 14.1751 270.89 11.3035 268.048 10.6025C265.207 9.90142 262.335 11.6364 261.634 14.4777C260.933 17.319 262.668 20.1907 265.51 20.8917C268.351 21.5927 271.223 19.8577 271.924 17.0164Z" fill="#FFFCDD"/>
<path d="M270.269 15.7455C270.269 16.4359 270.064 17.1108 269.681 17.6849C269.297 18.259 268.752 18.7064 268.114 18.9706C267.476 19.2348 266.774 19.304 266.097 19.1693C265.42 19.0346 264.798 18.7021 264.31 18.2139C263.821 17.7257 263.489 17.1037 263.354 16.4265C263.219 15.7493 263.289 15.0474 263.553 14.4095C263.817 13.7717 264.264 13.2265 264.839 12.8429C265.413 12.4593 266.088 12.2545 266.778 12.2545C267.704 12.2545 268.592 12.6223 269.246 13.277C269.901 13.9317 270.269 14.8196 270.269 15.7455Z" fill="#3ABEB6"/>
<path d="M268.626 15.7454C268.626 16.1111 268.517 16.4685 268.314 16.7725C268.111 17.0766 267.822 17.3135 267.484 17.4534C267.147 17.5934 266.775 17.63 266.416 17.5586C266.058 17.4873 265.728 17.3112 265.47 17.0527C265.211 16.7941 265.035 16.4647 264.964 16.1061C264.892 15.7475 264.929 15.3758 265.069 15.038C265.209 14.7002 265.446 14.4114 265.75 14.2083C266.054 14.0051 266.411 13.8967 266.777 13.8967C267.267 13.8967 267.738 14.0915 268.084 14.4382C268.431 14.7849 268.626 15.2551 268.626 15.7454Z" fill="#195055"/>
<path d="M270.474 13.8967C270.474 14.2624 270.366 14.6198 270.162 14.9238C269.959 15.2278 269.671 15.4648 269.333 15.6047C268.995 15.7446 268.623 15.7813 268.265 15.7099C267.906 15.6386 267.577 15.4625 267.318 15.204C267.06 14.9454 266.883 14.616 266.812 14.2574C266.741 13.8988 266.777 13.5271 266.917 13.1892C267.057 12.8514 267.294 12.5627 267.598 12.3596C267.902 12.1564 268.26 12.048 268.625 12.048C269.116 12.048 269.586 12.2428 269.933 12.5895C270.279 12.9362 270.474 13.4064 270.474 13.8967Z" fill="#FFFCDD"/>
<path d="M271.547 10.8087C271.44 10.8089 271.337 10.7695 271.257 10.6982C268.743 8.46401 264.809 8.46401 262.297 10.6982C262.254 10.7364 262.204 10.7658 262.15 10.7847C262.096 10.8036 262.038 10.8117 261.981 10.8085C261.924 10.8052 261.868 10.7907 261.816 10.7658C261.764 10.7409 261.718 10.7061 261.68 10.6633C261.642 10.6205 261.612 10.5706 261.593 10.5165C261.574 10.4623 261.566 10.405 261.57 10.3477C261.573 10.2904 261.587 10.2344 261.612 10.1827C261.637 10.131 261.672 10.0848 261.715 10.0466C264.551 7.52291 268.996 7.52291 271.834 10.0466C271.9 10.1054 271.947 10.183 271.968 10.269C271.989 10.355 271.983 10.4453 271.951 10.528C271.92 10.6107 271.864 10.6818 271.791 10.7319C271.718 10.7821 271.632 10.8089 271.543 10.8087H271.547Z" fill="#6B3925"/>
<path d="M257.993 10.8087C257.885 10.8089 257.782 10.7695 257.702 10.6982C255.19 8.46401 251.255 8.46401 248.742 10.6982C248.655 10.7753 248.542 10.815 248.426 10.8085C248.31 10.8019 248.202 10.7497 248.125 10.6633C248.048 10.5769 248.008 10.4633 248.015 10.3477C248.021 10.232 248.073 10.1237 248.16 10.0466C250.998 7.52292 255.443 7.52292 258.279 10.0466C258.345 10.1054 258.392 10.183 258.413 10.269C258.434 10.355 258.428 10.4453 258.396 10.528C258.365 10.6107 258.309 10.6818 258.236 10.7319C258.163 10.7821 258.077 10.8089 257.988 10.8087H257.993Z" fill="#6B3925"/>
<path d="M270.57 23.0298C270.57 25.8332 269.456 28.5218 267.474 30.5041C265.492 32.4864 262.803 33.6 260 33.6C257.196 33.6 254.508 32.4864 252.526 30.5041C250.543 28.5218 249.43 25.8332 249.43 23.0298H270.57Z" fill="#FFFCDD"/>
</svg>
